<svg xmlns="http://www.w3.org/2000/svg" viewBox="0 0 512 512" role="img" aria-label="Soluciones M &amp; R"><defs><linearGradient id="g" x1="0" y1="0" x2="0" y2="1"><stop offset="0" stop-color="#0E265C"/><stop offset="1" stop-color="#071434"/></linearGradient></defs><rect width="512" height="512" rx="116" fill="url(#g)"/><polyline points="304.0,380.0 304.0,136.0" fill="none" stroke="#22D3EE" stroke-width="44" stroke-linecap="round" stroke-linejoin="round"/><polyline points="304.0,136.0 374.0,136.0 382.1,136.5 390.0,138.1 397.7,140.7 405.0,144.3 411.7,148.8 417.8,154.2 423.2,160.3 427.7,167.0 431.3,174.3 433.9,182.0 435.5,189.9 436.0,198.0 435.5,206.1 433.9,214.0 431.3,221.7 427.7,229.0 423.2,235.7 417.8,241.8 411.7,247.2 405.0,251.7 397.7,255.3 390.0,257.9 382.1,259.5 374.0,260.0 304.0,260.0" fill="none" stroke="#22D3EE" stroke-width="44" stroke-linecap="round" stroke-linejoin="round"/><polyline points="344.0,260.0 438.0,380.0" fill="none" stroke="#22D3EE" stroke-width="44" stroke-linecap="round" stroke-linejoin="round"/><polyline points="70.0,380.0 70.0,136.0 140.0,290.0 210.0,136.0 210.0,380.0" fill="none" stroke="#FFFFFF" stroke-width="44" stroke-linecap="round" stroke-linejoin="round"/></svg>